<svg xmlns="http://www.w3.org/2000/svg" version="1.1" xmlns:xlink="http://www.w3.org/1999/xlink" viewBox="0 0 200 200"><rect width="200" height="200" fill="url('#gradient')"></rect><defs><linearGradient id="gradient" gradientTransform="rotate(155 0.5 0.5)"><stop offset="0%" stop-color="#000000"></stop><stop offset="100%" stop-color="#000000"></stop></linearGradient></defs><g><g fill="#f6f8fb" transform="matrix(4.360926270960873,0,0,4.360926270960873,18.47119011906254,131.01044244514935)" stroke="#e7eaeb" stroke-width="0"><path d="M6.74-4.46L6.74-14.22L10.16-14.22L10.16-4.46Q10.16-3.11 9.53-2.04Q8.90-0.98 7.77-0.39Q6.64 0.20 5.25 0.20L5.25 0.20Q2.93 0.20 1.64-0.98Q0.35-2.15 0.35-4.30L0.35-4.30L3.79-4.30Q3.79-3.32 4.13-2.88Q4.46-2.44 5.25-2.44L5.25-2.44Q5.97-2.44 6.35-2.97Q6.74-3.51 6.74-4.46L6.74-4.46ZM15.01-14.22L17.83-3.87L20.66-14.22L24.49-14.22L19.71 0L15.96 0L11.21-14.22L15.01-14.22ZM37.04-7.60L37.04-1.76Q36.25-0.88 34.73-0.34Q33.20 0.20 31.39 0.20L31.39 0.20Q28.59 0.20 26.92-1.51Q25.25-3.22 25.14-6.27L25.14-6.27L25.13-7.50Q25.13-9.60 25.87-11.17Q26.61-12.73 27.99-13.58Q29.38-14.42 31.19-14.42L31.19-14.42Q33.85-14.42 35.32-13.21Q36.79-11.99 37.03-9.58L37.03-9.58L33.73-9.58Q33.55-10.77 32.97-11.28Q32.38-11.79 31.31-11.79L31.31-11.79Q30.02-11.79 29.32-10.69Q28.61-9.60 28.60-7.57L28.60-7.57L28.60-6.71Q28.60-4.58 29.33-3.51Q30.06-2.44 31.62-2.44L31.62-2.44Q32.96-2.44 33.61-3.04L33.61-3.04L33.61-5.24L31.23-5.24L31.23-7.60L37.04-7.60Z"></path></g></g></svg>